<svg xmlns="http://www.w3.org/2000/svg" width="22.947" height="24.477" viewBox="0 0 22.947 24.477">
  <path id="Icon_metro-calendar" data-name="Icon metro-calendar" d="M10.22,11.107h3.06v3.06H10.22Zm4.589,0h3.06v3.06h-3.06Zm4.589,0h3.06v3.06H19.4ZM5.63,20.286H8.69v3.06H5.63Zm4.589,0h3.06v3.06H10.22Zm4.589,0h3.06v3.06h-3.06ZM10.22,15.7h3.06v3.06H10.22Zm4.589,0h3.06v3.06h-3.06Zm4.589,0h3.06v3.06H19.4ZM5.63,15.7H8.69v3.06H5.63ZM22.458,1.928v1.53H19.4V1.928H8.69v1.53H5.63V1.928H2.571V26.405H25.518V1.928h-3.06Zm1.53,22.947H4.1V8.047H23.988Z" transform="translate(-2.571 -1.928)" fill="#5f5f5f"/>
</svg>
